# xmcd
#
# Track frame offsets: 
#        150
#        10987
#        29785
#        50835
#        63120
#        82325
#        92815
#        118055
#        130282
#        145377
#
# Disc length: 2478 seconds
#
# Revision: 17
# Processed by: cddbd v1.5.2PL0 Copyright (c) Steve Scherf et al.
# Submitted via: ExactAudioCopyFreeDBPlugin 1.0
#
DISCID=9709ac0a
DTITLE=Stevie Ray Vaughan and Double Trouble - In Step
DYEAR=1989
DGENRE=Blues
TTITLE0=The House Is Rockin'
TTITLE1=Crossfire
TTITLE2=Tightrope
TTITLE3=Let Me Love You Baby
TTITLE4=Leave My Girl Alone
TTITLE5=Travis Walk
TTITLE6=Wall of Denial
TTITLE7=Scratch-N-Sniff
TTITLE8=Love Me Darlin'
TTITLE9=Riviera Paradise
EXTD=LABEL =CBS Records Inc.\nID =EK45024\nUPC =07464-45024-2\nCOPY
EXTD=RIGHT =1989 ID3G:   0
EXTT0=
EXTT1=
EXTT2=
EXTT3=
EXTT4=
EXTT5=
EXTT6=
EXTT7=
EXTT8=
EXTT9=
PLAYORDER=
